<svg width="29" height="29" viewBox="0 0 29 29" fill="none" xmlns="http://www.w3.org/2000/svg">
<path d="M24.1425 0.449951H4.75789C3.6158 0.451198 2.52085 0.905444 1.71327 1.71302C0.905688 2.5206 0.451442 3.61556 0.450195 4.75764V24.1423C0.451442 25.2843 0.905688 26.3793 1.71327 27.1869C2.52085 27.9945 3.6158 28.4487 4.75789 28.45H24.1425C25.2846 28.4487 26.3795 27.9945 27.1871 27.1869C27.9947 26.3793 28.4489 25.2843 28.4502 24.1423V4.75764C28.4489 3.61556 27.9947 2.5206 27.1871 1.71302C26.3795 0.905444 25.2846 0.451198 24.1425 0.449951ZM21.7363 9.75793L12.6901 20.5272C12.5909 20.6454 12.4674 20.7408 12.328 20.8071C12.1887 20.8735 12.0367 20.909 11.8824 20.9115H11.8642C11.7133 20.9114 11.564 20.8797 11.4262 20.8182C11.2883 20.7567 11.1649 20.667 11.0639 20.5548L7.18702 16.2471C7.08856 16.1426 7.01197 16.0196 6.96175 15.8851C6.91153 15.7507 6.88869 15.6075 6.89457 15.4641C6.90046 15.3207 6.93495 15.1799 6.99603 15.0501C7.0571 14.9202 7.14352 14.8038 7.25021 14.7078C7.35689 14.6118 7.4817 14.5381 7.61728 14.491C7.75286 14.4439 7.89649 14.4244 8.03972 14.4336C8.18295 14.4428 8.3229 14.4806 8.45133 14.5446C8.57976 14.6087 8.69409 14.6978 8.7876 14.8067L11.836 18.1936L20.0872 8.37274C20.2723 8.15875 20.5342 8.0262 20.8162 8.00372C21.0982 7.98125 21.3778 8.07067 21.5944 8.25264C21.811 8.43461 21.9474 8.69453 21.9739 8.97621C22.0004 9.25788 21.9151 9.53869 21.7363 9.75793Z" fill="#17C05B"/>
</svg>
