<svg width="28" height="28" viewBox="0 0 28 28" fill="none" xmlns="http://www.w3.org/2000/svg">
<g id="Checkbox">
<path id="check" d="M23.6923 0.00012207H4.30769C3.1656 0.00136918 2.07065 0.455615 1.26307 1.26319C0.455493 2.07077 0.00124711 3.16573 0 4.30781V23.6924C0.00124711 24.8345 0.455493 25.9295 1.26307 26.7371C2.07065 27.5446 3.1656 27.9989 4.30769 28.0001H23.6923C24.8344 27.9989 25.9294 27.5446 26.7369 26.7371C27.5445 25.9295 27.9988 24.8345 28 23.6924V4.30781C27.9988 3.16573 27.5445 2.07077 26.7369 1.26319C25.9294 0.455615 24.8344 0.00136918 23.6923 0.00012207ZM21.2861 9.3081L12.2399 20.0773C12.1407 20.1955 12.0172 20.291 11.8778 20.3573C11.7385 20.4236 11.5865 20.4592 11.4322 20.4617H11.414C11.2631 20.4616 11.1138 20.4298 10.976 20.3684C10.8381 20.3069 10.7147 20.2172 10.6138 20.1049L6.73683 15.7972C6.63837 15.6928 6.56178 15.5697 6.51155 15.4353C6.46133 15.3008 6.43849 15.1577 6.44438 15.0143C6.45027 14.8709 6.48476 14.7301 6.54583 14.6002C6.6069 14.4703 6.69332 14.354 6.80001 14.258C6.9067 14.162 7.0315 14.0882 7.16708 14.0412C7.30267 13.9941 7.44629 13.9746 7.58953 13.9838C7.73276 13.993 7.8727 14.0307 8.00113 14.0948C8.12957 14.1589 8.2439 14.248 8.3374 14.3569L11.3858 17.7438L19.637 7.92291C19.8221 7.70893 20.084 7.57637 20.366 7.5539C20.648 7.53142 20.9276 7.62084 21.1442 7.80281C21.3608 7.98479 21.4972 8.2447 21.5237 8.52638C21.5503 8.80805 21.4649 9.08886 21.2861 9.3081Z" fill="#17C05B"/>
</g>
</svg>
