<svg width="45" height="45" viewBox="0 0 45 45" fill="none" xmlns="http://www.w3.org/2000/svg">
<path d="M31.9434 0H13.079C4.88493 0 0 4.8825 0 13.0725V31.905C0 40.1175 4.88493 45 13.079 45H31.9209C40.115 45 44.9999 40.1175 44.9999 31.9275V13.0725C45.0224 4.8825 40.1375 0 31.9434 0ZM36.0179 24.1875H24.1996V36C24.1996 36.9225 23.4342 37.6875 22.5112 37.6875C21.5883 37.6875 20.8229 36.9225 20.8229 36V24.1875H9.00449C8.08153 24.1875 7.31615 23.4225 7.31615 22.5C7.31615 21.5775 8.08153 20.8125 9.00449 20.8125H20.8229V9C20.8229 8.0775 21.5883 7.3125 22.5112 7.3125C23.4342 7.3125 24.1996 8.0775 24.1996 9V20.8125H36.0179C36.9409 20.8125 37.7063 21.5775 37.7063 22.5C37.7063 23.4225 36.9409 24.1875 36.0179 24.1875Z" fill="#412B76"/>
</svg>
