<svg width="67" height="34" viewBox="0 0 67 34" fill="none" xmlns="http://www.w3.org/2000/svg">
<path d="M9.75 24.2C8.61667 24.2 7.625 23.95 6.775 23.45C5.925 22.95 5.25833 22.1917 4.775 21.175C4.30833 20.1417 4.075 18.8417 4.075 17.275C4.075 15.6917 4.3 14.3917 4.75 13.375C5.2 12.3583 5.85 11.6 6.7 11.1C7.55 10.6 8.56667 10.35 9.75 10.35C11.0167 10.35 12.15 10.6417 13.15 11.225C14.1667 11.7917 14.9667 12.5917 15.55 13.625C16.15 14.6583 16.45 15.875 16.45 17.275C16.45 18.6917 16.15 19.9167 15.55 20.95C14.9667 21.9833 14.1667 22.7833 13.15 23.35C12.15 23.9167 11.0167 24.2 9.75 24.2ZM1.8 28.85V10.55H5.525V13.3L5.45 17.3L5.7 21.275V28.85H1.8ZM9.075 21C9.725 21 10.3 20.85 10.8 20.55C11.3167 20.25 11.725 19.825 12.025 19.275C12.3417 18.7083 12.5 18.0417 12.5 17.275C12.5 16.4917 12.3417 15.825 12.025 15.275C11.725 14.725 11.3167 14.3 10.8 14C10.3 13.7 9.725 13.55 9.075 13.55C8.425 13.55 7.84167 13.7 7.325 14C6.80833 14.3 6.4 14.725 6.1 15.275C5.8 15.825 5.65 16.4917 5.65 17.275C5.65 18.0417 5.8 18.7083 6.1 19.275C6.4 19.825 6.80833 20.25 7.325 20.55C7.84167 20.85 8.425 21 9.075 21ZM27.0107 24.2C25.8774 24.2 24.8857 23.95 24.0357 23.45C23.1857 22.95 22.5191 22.1917 22.0357 21.175C21.5691 20.1417 21.3357 18.8417 21.3357 17.275C21.3357 15.6917 21.5607 14.3917 22.0107 13.375C22.4607 12.3583 23.1107 11.6 23.9607 11.1C24.8107 10.6 25.8274 10.35 27.0107 10.35C28.2774 10.35 29.4107 10.6417 30.4107 11.225C31.4274 11.7917 32.2274 12.5917 32.8107 13.625C33.4107 14.6583 33.7107 15.875 33.7107 17.275C33.7107 18.6917 33.4107 19.9167 32.8107 20.95C32.2274 21.9833 31.4274 22.7833 30.4107 23.35C29.4107 23.9167 28.2774 24.2 27.0107 24.2ZM19.0607 28.85V10.55H22.7857V13.3L22.7107 17.3L22.9607 21.275V28.85H19.0607ZM26.3357 21C26.9857 21 27.5607 20.85 28.0607 20.55C28.5774 20.25 28.9857 19.825 29.2857 19.275C29.6024 18.7083 29.7607 18.0417 29.7607 17.275C29.7607 16.4917 29.6024 15.825 29.2857 15.275C28.9857 14.725 28.5774 14.3 28.0607 14C27.5607 13.7 26.9857 13.55 26.3357 13.55C25.6857 13.55 25.1024 13.7 24.5857 14C24.0691 14.3 23.6607 14.725 23.3607 15.275C23.0607 15.825 22.9107 16.4917 22.9107 17.275C22.9107 18.0417 23.0607 18.7083 23.3607 19.275C23.6607 19.825 24.0691 20.25 24.5857 20.55C25.1024 20.85 25.6857 21 26.3357 21ZM42.8215 24.2C41.3715 24.2 40.0798 23.9083 38.9465 23.325C37.8132 22.725 36.9215 21.9 36.2715 20.85C35.6382 19.8 35.3215 18.6083 35.3215 17.275C35.3215 15.925 35.6382 14.7333 36.2715 13.7C36.9215 12.65 37.8132 11.8333 38.9465 11.25C40.0798 10.65 41.3715 10.35 42.8215 10.35C44.2382 10.35 45.4715 10.65 46.5215 11.25C47.5715 11.8333 48.3465 12.675 48.8465 13.775L45.8215 15.4C45.4715 14.7667 45.0298 14.3 44.4965 14C43.9798 13.7 43.4132 13.55 42.7965 13.55C42.1298 13.55 41.5298 13.7 40.9965 14C40.4632 14.3 40.0382 14.725 39.7215 15.275C39.4215 15.825 39.2715 16.4917 39.2715 17.275C39.2715 18.0583 39.4215 18.725 39.7215 19.275C40.0382 19.825 40.4632 20.25 40.9965 20.55C41.5298 20.85 42.1298 21 42.7965 21C43.4132 21 43.9798 20.8583 44.4965 20.575C45.0298 20.275 45.4715 19.8 45.8215 19.15L48.8465 20.8C48.3465 21.8833 47.5715 22.725 46.5215 23.325C45.4715 23.9083 44.2382 24.2 42.8215 24.2ZM59.042 24.2C57.9087 24.2 56.917 23.95 56.067 23.45C55.217 22.95 54.5503 22.1917 54.067 21.175C53.6003 20.1417 53.367 18.8417 53.367 17.275C53.367 15.6917 53.592 14.3917 54.042 13.375C54.492 12.3583 55.142 11.6 55.992 11.1C56.842 10.6 57.8587 10.35 59.042 10.35C60.3087 10.35 61.442 10.6417 62.442 11.225C63.4587 11.7917 64.2587 12.5917 64.842 13.625C65.442 14.6583 65.742 15.875 65.742 17.275C65.742 18.6917 65.442 19.9167 64.842 20.95C64.2587 21.9833 63.4587 22.7833 62.442 23.35C61.442 23.9167 60.3087 24.2 59.042 24.2ZM51.092 28.85V10.55H54.817V13.3L54.742 17.3L54.992 21.275V28.85H51.092ZM58.367 21C59.017 21 59.592 20.85 60.092 20.55C60.6087 20.25 61.017 19.825 61.317 19.275C61.6337 18.7083 61.792 18.0417 61.792 17.275C61.792 16.4917 61.6337 15.825 61.317 15.275C61.017 14.725 60.6087 14.3 60.092 14C59.592 13.7 59.017 13.55 58.367 13.55C57.717 13.55 57.1337 13.7 56.617 14C56.1003 14.3 55.692 14.725 55.392 15.275C55.092 15.825 54.942 16.4917 54.942 17.275C54.942 18.0417 55.092 18.7083 55.392 19.275C55.692 19.825 56.1003 20.25 56.617 20.55C57.1337 20.85 57.717 21 58.367 21Z" fill="#412B76"/>
<line x1="2" y1="33.25" x2="65" y2="33.25" stroke="#31AE0E" stroke-width="1.5"/>
</svg>
