<svg width="86" height="60" viewBox="0 0 86 60" fill="none" xmlns="http://www.w3.org/2000/svg">
<path fill-rule="evenodd" clip-rule="evenodd" d="M81.4609 6.96806C85 10.3551 85 15.07 85 24.5C85 33.93 85 38.6449 81.4609 42.0319C79.9287 43.4982 77.96 44.7571 75.667 45.7369C70.3703 48 62.9969 48 48.25 48H37.75C30.3963 48 24.8761 48 20.5326 47.7194L15.5053 57.7909C15.1369 58.5288 14.0841 58.5288 13.7158 57.7909L6.72546 43.7869C5.92328 43.2432 5.19162 42.6564 4.53914 42.0319C1 38.6449 1 33.93 1 24.5C1 15.07 1 10.3551 4.53914 6.96806C6.07127 5.50179 8.04003 4.24285 10.333 3.26312C15.6297 1 23.0031 1 37.75 1H48.25C62.9969 1 70.3703 1 75.667 3.26312C77.96 4.24285 79.9287 5.50179 81.4609 6.96806Z" fill="#F5F5F5"/>
<path d="M81.4609 6.96806L80.7695 7.69052V7.69052L81.4609 6.96806ZM81.4609 42.0319L82.1523 42.7544L81.4609 42.0319ZM75.667 45.7369L75.2741 44.8173L75.667 45.7369ZM20.5326 47.7194L20.5971 46.7215C20.1956 46.6955 19.8176 46.9128 19.6379 47.2728L20.5326 47.7194ZM15.5053 57.7909L16.4 58.2375L15.5053 57.7909ZM13.7158 57.7909L12.8211 58.2375L13.7158 57.7909ZM6.72546 43.7869L7.62018 43.3403C7.54351 43.1867 7.4286 43.0554 7.28649 42.9591L6.72546 43.7869ZM4.53914 42.0319L5.23055 41.3095H5.23055L4.53914 42.0319ZM4.53914 6.96806L3.84773 6.24559H3.84773L4.53914 6.96806ZM10.333 3.26312L9.94012 2.34354L9.94012 2.34354L10.333 3.26312ZM75.667 3.26312L75.2741 4.1827V4.1827L75.667 3.26312ZM86 24.5C86 19.8172 86.0029 16.188 85.5452 13.3108C85.0792 10.3819 84.1229 8.13151 82.1523 6.24559L80.7695 7.69052C82.338 9.19161 83.1512 10.9922 83.57 13.625C83.9971 16.3095 84 19.7528 84 24.5H86ZM82.1523 42.7544C84.1229 40.8685 85.0792 38.6181 85.5452 35.6892C86.0029 32.812 86 29.1828 86 24.5H84C84 29.2472 83.9971 32.6905 83.57 35.375C83.1512 38.0078 82.338 39.8084 80.7695 41.3095L82.1523 42.7544ZM76.0599 46.6565C78.4444 45.6376 80.5195 44.317 82.1523 42.7544L80.7695 41.3095C79.338 42.6794 77.4756 43.8767 75.2741 44.8173L76.0599 46.6565ZM48.25 49C55.6101 49 61.1783 49.0005 65.5672 48.715C69.9591 48.4293 73.2582 47.8535 76.0599 46.6565L75.2741 44.8173C72.779 45.8834 69.7431 46.4391 65.4374 46.7192C61.1287 46.9995 55.6368 47 48.25 47V49ZM37.75 49H48.25V47H37.75V49ZM20.4682 48.7173C24.8514 49.0005 30.4096 49 37.75 49V47C30.383 47 24.9008 46.9995 20.5971 46.7215L20.4682 48.7173ZM16.4 58.2375L21.4274 48.166L19.6379 47.2728L14.6105 57.3443L16.4 58.2375ZM12.8211 58.2375C13.5577 59.7132 15.6634 59.7132 16.4 58.2375L14.6105 57.3443H14.6105L12.8211 58.2375ZM5.83073 44.2335L12.8211 58.2375L14.6105 57.3443L7.62018 43.3403L5.83073 44.2335ZM3.84773 42.7544C4.54373 43.4205 5.3196 44.0421 6.16442 44.6147L7.28649 42.9591C6.52697 42.4443 5.8395 41.8923 5.23055 41.3095L3.84773 42.7544ZM0 24.5C0 29.1828 -0.00291085 32.812 0.454811 35.6892C0.920756 38.6181 1.8771 40.8685 3.84773 42.7544L5.23055 41.3095C3.66204 39.8084 2.84881 38.0078 2.42997 35.375C2.00291 32.6905 2 29.2472 2 24.5H0ZM3.84773 6.24559C1.8771 8.13151 0.920756 10.3819 0.454811 13.3108C-0.00291085 16.188 0 19.8172 0 24.5H2C2 19.7528 2.00291 16.3095 2.42997 13.625C2.84881 10.9922 3.66204 9.19161 5.23055 7.69052L3.84773 6.24559ZM9.94012 2.34354C7.55563 3.36237 5.4805 4.68301 3.84773 6.24559L5.23055 7.69052C6.66203 6.32057 8.52444 5.12334 10.7259 4.1827L9.94012 2.34354ZM37.75 0C30.3899 0 24.8217 -0.00049746 20.4328 0.284999C16.0409 0.570694 12.7418 1.14647 9.94012 2.34354L10.7259 4.1827C13.221 3.11665 16.2569 2.56087 20.5626 2.28078C24.8713 2.0005 30.3632 2 37.75 2V0ZM48.25 0H37.75V2H48.25V0ZM76.0599 2.34354C73.2582 1.14647 69.9591 0.570694 65.5672 0.284999C61.1783 -0.00049746 55.6101 0 48.25 0V2C55.6368 2 61.1287 2.0005 65.4374 2.28078C69.7431 2.56087 72.779 3.11665 75.2741 4.1827L76.0599 2.34354ZM82.1523 6.24559C80.5195 4.68301 78.4444 3.36237 76.0599 2.34354L75.2741 4.1827C77.4756 5.12334 79.338 6.32057 80.7695 7.69052L82.1523 6.24559Z" fill="#33363F"/>
</svg>
