<svg width="23" height="23" viewBox="0 0 23 23" fill="none" xmlns="http://www.w3.org/2000/svg">
<path d="M22.9607 22.8296C22.9607 22.852 22.9562 22.8742 22.9477 22.8949C22.9391 22.9156 22.9266 22.9344 22.9108 22.9502C22.895 22.966 22.8762 22.9786 22.8556 22.9871C22.835 22.9957 22.8129 23 22.7906 23L0.16955 22.9603C0.124505 22.9602 0.0813379 22.9422 0.049543 22.9101C0.0177482 22.878 -7.25152e-05 22.8346 2.21791e-07 22.7893L0.0392916 0.170414C0.0393276 0.147999 0.0437571 0.125812 0.0523275 0.105117C0.0608978 0.0844219 0.0734442 0.0656251 0.0892442 0.0498008C0.105044 0.0339764 0.12379 0.0214328 0.144414 0.0128883C0.165039 0.00434381 0.187134 -3.59602e-05 0.209443 2.22367e-07L22.8305 0.0396978C22.8755 0.0397854 22.9187 0.0578455 22.9505 0.0899059C22.9823 0.121966 23.0001 0.165402 23 0.210662L22.9607 22.8296ZM11.4288 13.6584C11.4487 13.6346 11.4737 13.6155 11.5019 13.6026C11.53 13.5897 11.5607 13.5832 11.5917 13.5838C11.6227 13.5843 11.6532 13.5918 11.6809 13.6056C11.7086 13.6195 11.733 13.6394 11.7521 13.6639L15.2099 17.9366C15.2291 17.9604 15.2534 17.9796 15.2808 17.9929C15.3083 18.0062 15.3383 18.0133 15.3688 18.0137L17.5443 18.0082C17.584 18.0088 17.6229 17.9979 17.6567 17.977C17.6904 17.9561 17.7175 17.926 17.7347 17.8901C17.752 17.8543 17.7587 17.8142 17.7541 17.7747C17.7495 17.7351 17.7338 17.6977 17.7087 17.6668L12.8919 11.6377C12.8624 11.5997 12.8468 11.5527 12.8478 11.5045C12.8488 11.4564 12.8663 11.41 12.8974 11.3734L17.6758 5.51489C17.7006 5.48438 17.7163 5.44748 17.7211 5.40842C17.7259 5.36936 17.7196 5.32973 17.703 5.29408C17.6864 5.25843 17.6602 5.22821 17.6273 5.20688C17.5943 5.18556 17.5561 5.17399 17.5169 5.17352L15.3359 5.15149C15.3045 5.15105 15.2734 5.15775 15.2449 5.1711C15.2165 5.18445 15.1914 5.2041 15.1715 5.22858L11.6151 9.51781C11.5955 9.54101 11.5712 9.55964 11.5437 9.57243C11.5163 9.58521 11.4864 9.59184 11.4562 9.59184C11.4259 9.59184 11.396 9.58521 11.3686 9.57243C11.3411 9.55964 11.3168 9.54101 11.2972 9.51781L7.79559 5.23959C7.77642 5.21753 7.75286 5.19977 7.72643 5.18744C7.7 5.17511 7.67129 5.16849 7.64215 5.16801L5.44472 5.10744C5.40509 5.10687 5.36612 5.11768 5.33239 5.1386C5.29866 5.15951 5.27157 5.18967 5.25431 5.22552C5.23704 5.26137 5.23032 5.30142 5.23492 5.34098C5.23953 5.38053 5.25528 5.41795 5.28032 5.44882L10.0917 11.4394C10.1219 11.4768 10.1385 11.5234 10.1385 11.5716C10.1385 11.6197 10.1219 11.6664 10.0917 11.7037L5.28032 17.6943C5.25528 17.7252 5.23953 17.7626 5.23492 17.8022C5.23032 17.8417 5.23704 17.8818 5.25431 17.9176C5.27157 17.9535 5.29866 17.9836 5.33239 18.0046C5.36612 18.0255 5.40509 18.0363 5.44472 18.0357L7.58736 18.0192C7.6165 18.0187 7.64521 18.0121 7.67164 17.9998C7.69807 17.9874 7.72163 17.9697 7.7408 17.9476L11.4288 13.6584Z" fill="#D71627"/>
</svg>
